<svg fill="#fff" version="1.1" xmlns="http://www.w3.org/2000/svg" xmlns:xlink="http://www.w3.org/1999/xlink" viewBox="0 0 225.66 225.661" xml:space="preserve" stroke="#fff"><g stroke-width="0"></g><g stroke-linecap="round" stroke-linejoin="round"></g><g><g><g><polygon points="192.327,57.373 165.823,57.373 179.075,80.318"></polygon><polygon points="145.951,80.318 159.203,57.373 132.711,57.373"></polygon><polygon points="92.952,57.373 66.46,57.373 79.709,80.318"></polygon><polygon points="59.84,57.373 33.336,57.373 46.585,80.318"></polygon><polygon points="76.394,82.23 63.15,59.285 49.901,82.23"></polygon><polygon points="83.022,82.23 109.521,82.23 96.271,59.285"></polygon><polygon points="129.39,59.285 116.138,82.23 142.642,82.23"></polygon><polygon points="175.76,82.23 162.514,59.285 149.268,82.23"></polygon><polygon points="116.138,86.058 129.39,109.006 142.642,86.058"></polygon><polygon points="96.271,109.006 109.521,86.058 83.022,86.058"></polygon><polygon points="112.83,87.97 99.581,110.927 126.079,110.927"></polygon><polygon points="112.83,137.691 126.079,114.734 99.581,114.734"></polygon><polygon points="109.521,139.6 96.271,116.655 83.022,139.6"></polygon><polygon points="129.39,116.655 116.138,139.6 142.642,139.6"></polygon><polygon points="149.268,143.43 162.514,166.376 175.76,143.43"></polygon><polygon points="142.642,143.43 116.138,143.43 129.39,166.376"></polygon><polygon points="96.271,166.376 109.521,143.43 83.022,143.43"></polygon><polygon points="49.901,143.43 63.15,166.376 76.394,143.43"></polygon><polygon points="33.336,168.292 59.84,168.292 46.585,145.346"></polygon><polygon points="79.709,145.346 66.46,168.292 92.952,168.292"></polygon><polygon points="132.711,168.292 159.203,168.292 145.951,145.346"></polygon><polygon points="165.823,168.292 192.327,168.292 179.075,145.346"></polygon><polygon points="195.637,109.006 208.889,86.058 182.385,86.058"></polygon><polygon points="43.272,86.058 16.774,86.058 30.023,109.006"></polygon><polygon points="13.464,87.97 0.215,110.927 26.708,110.927"></polygon><polygon points="46.585,87.97 33.336,110.927 59.84,110.927"></polygon><polygon points="179.075,87.97 165.823,110.927 192.327,110.927"></polygon><polygon points="225.445,110.927 212.199,87.97 198.953,110.927"></polygon><polygon points="126.079,0 99.581,0 112.83,22.946"></polygon><polygon points="96.271,1.912 83.022,24.87 109.521,24.87"></polygon><polygon points="142.642,24.87 129.39,1.912 116.138,24.87"></polygon><polygon points="142.642,28.691 116.138,28.691 129.39,51.642"></polygon><polygon points="109.521,28.691 83.022,28.691 96.271,51.642"></polygon><polygon points="99.581,53.548 126.079,53.548 112.83,30.603"></polygon><polygon points="179.075,137.691 192.327,114.734 165.823,114.734"></polygon><polygon points="46.585,137.691 59.84,114.734 33.336,114.734"></polygon><polygon points="0.215,114.734 13.464,137.691 26.708,114.734"></polygon><polygon points="30.023,116.655 16.774,139.6 43.272,139.6"></polygon><polygon points="182.385,139.6 208.889,139.6 195.637,116.655"></polygon><polygon points="212.199,137.691 225.445,114.734 198.953,114.734"></polygon><polygon points="126.079,172.11 99.581,172.11 112.83,195.055"></polygon><polygon points="109.521,196.97 96.271,174.019 83.022,196.97"></polygon><polygon points="116.138,196.97 142.642,196.97 129.39,174.019"></polygon><polygon points="129.39,223.747 142.642,200.789 116.138,200.789"></polygon><polygon points="83.022,200.789 96.271,223.747 109.521,200.789"></polygon><polygon points="99.581,225.661 126.079,225.661 112.83,202.715"></polygon></g></g></g></svg>